<svg width="31" height="31" viewBox="0 0 31 31" fill="none" xmlns="http://www.w3.org/2000/svg">
<path fill-rule="evenodd" clip-rule="evenodd" d="M15.7172 30.4194C23.8453 30.4194 30.4344 23.8336 30.4344 15.7097C30.4344 7.58575 23.8453 1 15.7172 1C7.58912 1 1 7.58575 1 15.7097C1 23.8336 7.58912 30.4194 15.7172 30.4194Z" fill="white" fill-opacity="0.15" stroke="#6B8BFF" stroke-width="0.759375"/>
<path fill-rule="evenodd" clip-rule="evenodd" d="M20.3781 12.4095C20.8326 12.9868 21.0826 13.7024 21.0827 14.443C21.0827 16.814 20.0248 17.9766 18.1236 18.3979C18.2458 18.7043 18.2981 19.0322 18.2721 19.3514V21.328C18.2721 21.6101 18.0433 21.8387 17.7611 21.8387C17.4789 21.8387 17.2501 21.6101 17.2501 21.328L17.2517 19.3113C17.2789 18.9648 17.1559 18.6234 16.9139 18.3738C16.6182 18.069 16.802 17.5577 17.2242 17.5107C19.1501 17.2961 20.0607 16.5308 20.0607 14.4431C20.0606 13.8611 19.8366 13.3014 19.4351 12.8799C19.3002 12.7383 19.258 12.5323 19.3264 12.3491C19.4733 11.9557 19.4967 11.5298 19.3978 11.127C19.3619 11.1351 19.3226 11.1452 19.2797 11.1575C18.9504 11.2523 18.54 11.4511 18.0457 11.7823C17.9228 11.8647 17.7702 11.8897 17.6274 11.8511C16.5437 11.5575 15.4014 11.5575 14.3177 11.8511C14.1749 11.8897 14.0224 11.8647 13.8995 11.7823C13.4051 11.4511 12.9948 11.2523 12.6655 11.1575C12.6226 11.1452 12.5832 11.1351 12.5473 11.127C12.4485 11.5298 12.4718 11.9557 12.6187 12.3491C12.6871 12.5323 12.6449 12.7383 12.5101 12.8799C12.1055 13.3046 11.8813 13.8693 11.8845 14.4584C11.8845 16.5265 12.7882 17.286 14.7274 17.5268C15.1457 17.5787 15.3247 18.086 15.0316 18.3888C14.7925 18.6358 14.6696 18.9727 14.695 19.3514V19.7883C14.6943 19.7422 14.6873 19.6953 14.6734 19.649C14.5923 19.3788 14.3074 19.2254 14.0371 19.3065C13.9075 19.3454 13.7869 19.3772 13.6743 19.4021L13.6743 19.3872C13.6505 19.0492 13.7041 18.7143 13.8266 18.4063C11.915 17.9678 10.8624 16.8163 10.8624 14.4611C10.8585 13.7143 11.1087 12.9916 11.5671 12.4095C11.3925 11.745 11.4431 11.0379 11.7163 10.401C11.7761 10.2614 11.895 10.1557 12.0406 10.1125C12.0699 10.1038 12.1056 10.096 12.1477 10.0899C12.6279 10.0202 13.332 10.2097 14.2755 10.8079C15.3913 10.5432 16.5538 10.5432 17.6696 10.8079C18.6131 10.2097 19.3172 10.0202 19.7975 10.0899C19.8395 10.096 19.8752 10.1038 19.9045 10.1125C20.0501 10.1557 20.169 10.2614 20.2289 10.401C20.502 11.0379 20.5526 11.745 20.3781 12.4095ZM13.6736 20.44C12.5403 20.6249 11.821 20.2555 11.1483 19.423C11.1271 19.3967 11.0772 19.3337 11.0286 19.2724C10.9818 19.2133 10.9361 19.1557 10.9188 19.1342C10.719 18.8874 10.6006 18.7884 10.4829 18.759C10.2091 18.6905 10.0426 18.4132 10.1111 18.1396C10.1795 17.8659 10.457 17.6995 10.7308 17.768C11.1217 17.8656 11.3846 18.0858 11.7132 18.4916C11.7348 18.5182 11.7873 18.5845 11.8375 18.6479C11.8828 18.705 11.9262 18.7598 11.9434 18.7812C12.4285 19.3815 12.8314 19.588 13.6743 19.4021L13.6736 20.44ZM13.6736 20.44C13.8784 20.4066 14.0967 20.3551 14.3308 20.2849C14.5496 20.2193 14.6918 20.0203 14.695 19.8035V21.328C14.695 21.6101 14.4662 21.8387 14.184 21.8387C13.9018 21.8387 13.673 21.6101 13.673 21.328L13.6736 20.44ZM14.695 19.8035V19.7883C14.6951 19.7934 14.6951 19.7985 14.695 19.8035Z" fill="black"/>
<mask id="mask0" mask-type="alpha" maskUnits="userSpaceOnUse" x="10" y="10" width="12" height="12">
<path fill-rule="evenodd" clip-rule="evenodd" d="M20.3781 12.4095C20.8326 12.9868 21.0826 13.7024 21.0827 14.443C21.0827 16.814 20.0248 17.9766 18.1236 18.3979C18.2458 18.7043 18.2981 19.0322 18.2721 19.3514V21.328C18.2721 21.6101 18.0433 21.8387 17.7611 21.8387C17.4789 21.8387 17.2501 21.6101 17.2501 21.328L17.2517 19.3113C17.2789 18.9648 17.1559 18.6234 16.9139 18.3738C16.6182 18.069 16.802 17.5577 17.2242 17.5107C19.1501 17.2961 20.0607 16.5308 20.0607 14.4431C20.0606 13.8611 19.8366 13.3014 19.4351 12.8799C19.3002 12.7383 19.258 12.5323 19.3264 12.3491C19.4733 11.9557 19.4967 11.5298 19.3978 11.127C19.3619 11.1351 19.3226 11.1452 19.2797 11.1575C18.9504 11.2523 18.54 11.4511 18.0457 11.7823C17.9228 11.8647 17.7702 11.8897 17.6274 11.8511C16.5437 11.5575 15.4014 11.5575 14.3177 11.8511C14.1749 11.8897 14.0224 11.8647 13.8995 11.7823C13.4051 11.4511 12.9948 11.2523 12.6655 11.1575C12.6226 11.1452 12.5832 11.1351 12.5473 11.127C12.4485 11.5298 12.4718 11.9557 12.6187 12.3491C12.6871 12.5323 12.6449 12.7383 12.5101 12.8799C12.1055 13.3046 11.8813 13.8693 11.8845 14.4584C11.8845 16.5265 12.7882 17.286 14.7274 17.5268C15.1457 17.5787 15.3247 18.086 15.0316 18.3888C14.7925 18.6358 14.6696 18.9727 14.695 19.3514V19.7883C14.6943 19.7422 14.6873 19.6953 14.6734 19.649C14.5923 19.3788 14.3074 19.2254 14.0371 19.3065C13.9075 19.3454 13.7869 19.3772 13.6743 19.4021L13.6743 19.3872C13.6505 19.0492 13.7041 18.7143 13.8266 18.4063C11.915 17.9678 10.8624 16.8163 10.8624 14.4611C10.8585 13.7143 11.1087 12.9916 11.5671 12.4095C11.3925 11.745 11.4431 11.0379 11.7163 10.401C11.7761 10.2614 11.895 10.1557 12.0406 10.1125C12.0699 10.1038 12.1056 10.096 12.1477 10.0899C12.6279 10.0202 13.332 10.2097 14.2755 10.8079C15.3913 10.5432 16.5538 10.5432 17.6696 10.8079C18.6131 10.2097 19.3172 10.0202 19.7975 10.0899C19.8395 10.096 19.8752 10.1038 19.9045 10.1125C20.0501 10.1557 20.169 10.2614 20.2289 10.401C20.502 11.0379 20.5526 11.745 20.3781 12.4095ZM13.6736 20.44C12.5403 20.6249 11.821 20.2555 11.1483 19.423C11.1271 19.3967 11.0772 19.3337 11.0286 19.2724C10.9818 19.2133 10.9361 19.1557 10.9188 19.1342C10.719 18.8874 10.6006 18.7884 10.4829 18.759C10.2091 18.6905 10.0426 18.4132 10.1111 18.1396C10.1795 17.8659 10.457 17.6995 10.7308 17.768C11.1217 17.8656 11.3846 18.0858 11.7132 18.4916C11.7348 18.5182 11.7873 18.5845 11.8375 18.6479C11.8828 18.705 11.9262 18.7598 11.9434 18.7812C12.4285 19.3815 12.8314 19.588 13.6743 19.4021L13.6736 20.44ZM13.6736 20.44C13.8784 20.4066 14.0967 20.3551 14.3308 20.2849C14.5496 20.2193 14.6918 20.0203 14.695 19.8035V21.328C14.695 21.6101 14.4662 21.8387 14.184 21.8387C13.9018 21.8387 13.673 21.6101 13.673 21.328L13.6736 20.44ZM14.695 19.8035V19.7883C14.6951 19.7934 14.6951 19.7985 14.695 19.8035Z" fill="white"/>
</mask>
<g mask="url(#mask0)">
<rect x="9.58496" y="9.58069" width="12.2643" height="12.2581" fill="#4569FE"/>
</g>
</svg>
